<?xml version="1.0" encoding="utf-8"?>
<!-- Generator: Adobe Illustrator 24.0.1, SVG Export Plug-In . SVG Version: 6.00 Build 0)  -->
<svg version="1.1" id="레이어_2_1_" xmlns="http://www.w3.org/2000/svg" xmlns:xlink="http://www.w3.org/1999/xlink" x="0px"
	 y="0px" viewBox="0 0 21.1 21" style="enable-background:new 0 0 21.1 21;" xml:space="preserve">
<style type="text/css">
	.st0{fill:#B1B1B7;}
</style>
<path class="st0" d="M20.7,17.5l-9.2-7l9-7c0.2-0.1,0.4-0.3,0.4-0.6c0-0.2,0-0.5-0.1-0.6c-0.1-0.2-0.3-0.3-0.6-0.4
	c-0.3,0-0.5,0-0.6,0.2L11,8.7V0.9C11,0.4,10.6,0,10.1,0S9.2,0.4,9.2,0.9v1.5C8.4,1.9,7.5,1.7,6.5,1.7C2.9,1.7,0,5.6,0,10.5
	c0,4.9,2.9,8.8,6.6,8.8c0.9,0,1.8-0.3,2.7-0.8v1.6c0,0.5,0.4,0.9,0.9,0.9s0.9-0.4,0.9-0.9v-7.8l8.5,6.6c0.2,0.2,0.3,0.2,0.6,0.2
	c0.3,0,0.5-0.2,0.7-0.3l0.1-0.1C21.2,18.3,21.1,17.9,20.7,17.5z M7.2,17.4c-0.2,0-0.5,0.1-0.7,0.1c-2.6,0-4.8-3.2-4.8-7
	c0-3.8,2.2-7,4.8-7c1,0,1.9,0.4,2.7,1.2v11.6C8.5,16.9,7.9,17.3,7.2,17.4z"/>
</svg>
