<?xml version="1.0" encoding="utf-8"?>
<!-- Generator: Adobe Illustrator 24.0.1, SVG Export Plug-In . SVG Version: 6.00 Build 0)  -->
<svg version="1.1" id="레이어_2_1_" xmlns="http://www.w3.org/2000/svg" xmlns:xlink="http://www.w3.org/1999/xlink" x="0px"
	 y="0px" viewBox="0 0 20.9 37.1" style="enable-background:new 0 0 20.9 37.1;" xml:space="preserve">
<style type="text/css">
	.st0{fill:#B1B1B7;}
</style>
<title>ERD-5</title>
<path class="st0" d="M8.3,3.1c-2,0-4,0.6-5.8,1.8V1.2C2.5,0.5,1.9,0,1.2,0C0.5,0,0,0.5,0,1.2v34.7c0,0.7,0.5,1.2,1.2,1.2
	s1.2-0.5,1.2-1.2v-3.6c1.8,1.2,3.8,1.8,5.8,1.8c7,0,12.7-7,12.7-15.5C20.9,10.1,15.2,3.1,8.3,3.1z M18.5,18.6c0,7.2-4.6,13-10.2,13
	c-2.1,0-4.1-0.8-5.8-2.3V7.9c1.8-1.5,3.7-2.3,5.8-2.3C13.9,5.6,18.5,11.4,18.5,18.6z"/>
</svg>
