<?xml version="1.0" encoding="utf-8"?>
<!-- Generator: Adobe Illustrator 24.0.1, SVG Export Plug-In . SVG Version: 6.00 Build 0)  -->
<svg version="1.1" id="레이어_2_1_" xmlns="http://www.w3.org/2000/svg" xmlns:xlink="http://www.w3.org/1999/xlink" x="0px"
	 y="0px" viewBox="0 0 21 34.6" style="enable-background:new 0 0 21 34.6;" xml:space="preserve">
<style type="text/css">
	.st0{fill:#B1B1B7;}
</style>
<title>ERD-4</title>
<path class="st0" d="M20.5,29.4L3.3,17.3L20.5,5.2c0.5-0.3,0.7-1,0.3-1.7c-0.3-0.5-1-0.7-1.7-0.3L2.4,15V1.2C2.4,0.5,1.9,0,1.2,0
	S0,0.5,0,1.2v32.2c0,0.7,0.5,1.2,1.2,1.2s1.2-0.5,1.2-1.2V19.6L19,31.3c0.2,0.2,0.6,0.2,0.8,0.2c0.3,0,0.7-0.1,1-0.4
	c0.2-0.2,0.3-0.5,0.2-0.8C21,29.9,20.8,29.6,20.5,29.4z"/>
</svg>
