<?xml version="1.0" encoding="utf-8"?>
<!-- Generator: Adobe Illustrator 24.0.1, SVG Export Plug-In . SVG Version: 6.00 Build 0)  -->
<svg version="1.1" id="레이어_2_1_" xmlns="http://www.w3.org/2000/svg" xmlns:xlink="http://www.w3.org/1999/xlink" x="0px"
	 y="0px" viewBox="0 0 13 21.2" style="enable-background:new 0 0 13 21.2;" xml:space="preserve">
<style type="text/css">
	.st0{fill:#B1B1B7;}
</style>
<title>ERD-4</title>
<path class="st0" d="M13,18.5c0-0.3-0.1-0.5-0.4-0.6L2.3,10.6l10.3-7.2c0.4-0.2,0.5-0.7,0.2-1.2c-0.2-0.4-0.7-0.5-1.2-0.2L1.7,9V0.9
	C1.7,0.4,1.3,0,0.9,0C0.4,0,0,0.4,0,0.9v19.5c0,0.5,0.4,0.9,0.9,0.9c0.5,0,0.9-0.4,0.9-0.9v-8.1l9.9,6.9c0.2,0.2,0.4,0.2,0.6,0.2
	c0.1,0,0.4,0,0.7-0.3C13,18.9,13.1,18.7,13,18.5z"/>
</svg>
