<?xml version="1.0" encoding="utf-8"?>
<!-- Generator: Adobe Illustrator 24.0.1, SVG Export Plug-In . SVG Version: 6.00 Build 0)  -->
<svg version="1.1" id="레이어_2_1_" xmlns="http://www.w3.org/2000/svg" xmlns:xlink="http://www.w3.org/1999/xlink" x="0px"
	 y="0px" viewBox="0 0 12 21" style="enable-background:new 0 0 12 21;" xml:space="preserve">
<style type="text/css">
	.st0{fill:#B1B1B7;}
</style>
<title>ERD-3</title>
<path class="st0" d="M11.9,0.4c-0.1-0.1-0.1-0.2-0.3-0.3C11.5,0.1,11.3,0,11.2,0c0,0-0.1,0-0.1,0c-0.5,0-0.9,0.4-0.9,0.9v1.6
	C9.3,2,8.3,1.7,7.2,1.7c-4,0-7.2,3.9-7.2,8.8s3.2,8.8,7.2,8.8c1.1,0,2.1-0.3,3-0.8v1.6c0,0.5,0.4,0.9,0.9,0.9s0.9-0.4,0.9-0.9
	c0,0,0,0,0-0.1c0-0.1,0-0.1,0-0.2c0-0.1,0-0.2,0-0.3c0-0.1,0-0.3,0-0.4c0-0.2,0-0.4,0-0.5c0-0.2,0-0.4,0-0.6c0-0.2,0-0.5,0-0.7
	c0-0.3,0-0.5,0-0.8c0-0.3,0-0.6,0-0.9c0-0.3,0-0.6,0-0.9c0-0.3,0-0.6,0-1c0-0.3,0-0.7,0-1c0-0.3,0-0.7,0-1c0-0.3,0-0.7,0-1
	c0-0.3,0-0.7,0-1c0-0.3,0-0.7,0-1c0-0.3,0-0.7,0-1c0-0.3,0-0.6,0-1c0-0.3,0-0.6,0-0.9c0-0.3,0-0.6,0-0.9c0-0.3,0-0.5,0-0.8
	c0-0.2,0-0.5,0-0.7c0-0.2,0-0.4,0-0.7c0-0.2,0-0.4,0-0.6c0-0.2,0-0.3,0-0.5c0-0.2,0-0.4,0-0.6C12,0.8,12,0.6,11.9,0.4z M7.2,17.5
	c-3,0-5.4-3.1-5.4-7c0-3.8,2.5-7,5.4-7c1.1,0,2.1,0.4,3,1.2v11.6C9.3,17.1,8.3,17.5,7.2,17.5z"/>
</svg>
